<svg xmlns="http://www.w3.org/2000/svg" width="16" height="16" viewBox="0 0 16 16" fill="none">
  <path d="M5.86075 3.35328L6.50887 2.42679C6.69598 2.15932 7.00185 2 7.32828 2H8.00645C8.33165 2 8.63654 2.15814 8.82387 2.42396L9.4639 3.33219M5.86075 3.35328C5.65154 3.65019 5.30378 3.79567 4.93468 3.76973M5.86075 3.35328C5.65052 3.64947 5.30378 3.79688 4.93468 3.76973M4.93468 3.76973L3.77902 3.69756C3.45919 3.67759 3.14916 3.8121 2.94526 4.05931L2.52656 4.56692C2.30874 4.83099 2.24113 5.18812 2.34735 5.51354L2.67426 6.51503M2.67426 6.51503C2.7279 6.68803 2.73476 6.87336 2.69638 7.0484M2.67426 6.51503C2.72866 6.68772 2.73527 6.87268 2.69612 7.0502M2.69638 7.0484C2.65748 7.22137 2.5741 7.3847 2.4503 7.51695M2.69638 7.0484L2.69612 7.0502M2.4503 7.51695L1.70178 8.31776C1.47181 8.5638 1.38113 8.90908 1.46053 9.23637L1.60161 9.81794C1.68047 10.143 1.91664 10.4071 2.2309 10.5217L3.2625 10.8978C3.43434 10.964 3.5828 11.0715 3.69516 11.2069M2.4503 7.51695C2.57486 7.38578 2.65748 7.22298 2.69612 7.0502M3.69516 11.2069C3.80676 11.3428 3.88276 11.5067 3.91225 11.6842M3.69516 11.2069C3.80777 11.3428 3.88403 11.5063 3.91225 11.6842M3.69516 11.2069L3.69338 11.205C3.68601 11.1961 3.67813 11.1868 3.6705 11.1782M3.91225 11.6842L4.0876 12.7556C4.14121 13.0832 4.35385 13.3628 4.65518 13.502L5.26331 13.7828C5.55329 13.9168 5.88979 13.9041 6.16889 13.7488L7.14806 13.2038M7.14806 13.2038C7.30796 13.1145 7.48641 13.0697 7.66487 13.0695M7.14806 13.2038C7.21136 13.168 7.27771 13.1394 7.34584 13.118C7.4493 13.0853 7.55708 13.0693 7.66487 13.0695M7.66487 13.0695C7.75765 13.0697 7.85044 13.0819 7.94094 13.106C8.02508 13.1284 8.10694 13.1611 8.18447 13.2038M7.66487 13.0695C7.84408 13.0692 8.02355 13.114 8.18447 13.2038M8.18447 13.2038L9.21708 13.7599C9.49738 13.9108 9.83279 13.9193 10.1203 13.7827L10.7259 13.495C11.0262 13.3523 11.236 13.0697 11.2856 12.741L11.4416 11.7068M11.4416 11.7068C11.4699 11.5283 11.5448 11.3631 11.6562 11.2261M11.4416 11.7068C11.4688 11.5279 11.5443 11.3629 11.6562 11.2261M11.6562 11.2261C11.7668 11.0905 11.9134 10.9824 12.0843 10.9156M11.6562 11.2261C11.7665 11.0899 11.9127 10.9816 12.0843 10.9156M12.0843 10.9156L13.1325 10.5069C13.4409 10.3867 13.6699 10.1216 13.744 9.79903L13.8815 9.20014C13.9556 8.8773 13.8651 8.5387 13.6397 8.29595L12.8825 7.48038M12.8825 7.48038C12.7564 7.34766 12.6684 7.18913 12.6257 7.02064M12.8825 7.48038C12.8233 7.41839 12.7724 7.35063 12.731 7.27878C12.6837 7.1972 12.6484 7.11036 12.6257 7.02064M12.6257 7.02064C12.5838 6.85336 12.5863 6.67609 12.6395 6.50451L12.9641 5.46947C13.0654 5.14643 12.9964 4.79408 12.7807 4.53313L12.379 4.04709C12.1727 3.79755 11.8584 3.66329 11.5355 3.68682L10.3976 3.76973M10.3976 3.76973C10.2141 3.78263 10.0336 3.74785 9.87292 3.67303M10.3976 3.76973C10.2138 3.78337 10.0336 3.74831 9.87292 3.67303M9.87292 3.67303C9.71124 3.59726 9.56939 3.48074 9.4639 3.33219M9.87292 3.67303C9.71099 3.59754 9.56888 3.48133 9.4639 3.33219M2.69612 7.0502L2.69663 7.04757M9.70895 8.00637C9.70895 9.12534 8.77652 10.0324 7.62648 10.0324C6.47645 10.0324 5.54401 9.12534 5.54401 8.00637C5.54401 6.8874 6.47645 5.98032 7.62648 5.98032C8.77652 5.98032 9.70895 6.8874 9.70895 8.00637Z" stroke="#101928" stroke-width="1.5"/>
</svg>